/* XPM */
static char *result[] = {
/* columns rows colors chars-per-pixel */
"64 64 30 1 ",
"  c #3B3637",
". c #3C3739",
"X c #433D3E",
"o c #443F41",
"O c #474144",
"+ c #4A4446",
"@ c #4C4649",
"# c #4E494B",
"$ c #524C4E",
"% c #4F4D52",
"& c #564E51",
"* c #584F52",
"= c #575152",
"- c #5A5354",
"; c #5D5658",
": c #5E5859",
"> c #605759",
", c #625B5C",
"< c #66605F",
"1 c #69615F",
"2 c #645F60",
"3 c #666161",
"4 c #6A6463",
"5 c #6D6A6D",
"6 c #716D6E",
"7 c #726E71",
"8 c #757073",
"9 c #797677",
"0 c #7B7779",
"q c #7C787A",
/* pixels */
"&7708650;;5887q:%66q8559-;5866q:%7608659;-5877q,%75q8659:-587802",
"o2,-======:-=;;:O4>;*--=--,--;;;O2,-=====-:;--;;o22-=====;:---:;",
"@<;-=-===;:;----@,:======;:;--;-@,;--===--:-;---@,:*====-;:;----",
"#;-===-==-;-----#:-===-===>=----$;;&--==--:-*---#:---==-==;-&---",
"X-====&#@@=$&&&-o---===$#@=&&&&=X-=-===$#+-=&&&-o--===&##+*&&&&-",
"=-#+$;=#@$#++&&&--#O$-=@#$#@@&$&=;#+$-=@###++=&&=;$O$-&####++&&&",
"4<:O=::,,:---24333;+$,;>,:-==<444<;O$,:<,:;=-<1433:+#::2,;;--,44",
";==+-=-----&;::>:-=+-=---&-=;;;;:-=+-&==-===-;;>:-=+-----=-&-:::",
"--=$*;**-;;&:;-:---$---*-;;=>-->-=-$=-***;;*;;->-=-#---*-;;*;:-:",
";-:&;**----&--=-;-;$-**----=----;-:$-**->--&&;&-;-:&-**-----=-=-",
"&$&@@#@###&@@@+#$$&@#$#$$@$@+@@$=$$#######$#+$+$&&&+@$@@%#&+@@@@",
"1>-*+.@:,,:-:-O-4:--+.+;,,:-,;o-1:-=#.+;<,,->;X&1:--+ +:,:,-:;O=",
";*--&o&*-----$O->***$O$---*--$+-----$O&*-*-*-$+>;--=&o$-*;-*-$O-",
"---*&&,:-**-:%+-*->*-$,;;-*-;$+*----&&,>-**->$+-----&&>:;**-:&+-",
"*-;--&,;-*-;-&+-*---*$,>---;-&+------$,--*->-$+-*---*&,-**-:-&@-",
"$$--#+,*$&$*&#+&$&--#@,*$$$$&$+$$&--$O,**$$*&$+$$$-;#+,*&&$&&$+$",
"X>,4,-;1oo-,,:4+.>,4<-;1OX-,,;4+ :<4,--4oX;,>;4@ ,,4<--1+X-<,;1#",
"o,>---=-&;:--;::o2>-=====->;-;;;o<<-=-=-*->--;;>o,,>=-===-,-=-:;",
"#,>--===--,----*#,>-=--=--::----#,:-====-->;-;--#,>*-===--,;----",
"#>--=--=*-:---*;#>--=-==--:----*#;-=--==-->-*---#>;*=-==-=;-----",
"O---===$@+-&&&&-o-=-===$#@-=&==-X-=-===$$@=&&*&-o=-====$#@=&&&&-",
"=-#O$-$#@##++&$&=-#+=-&@##@O+&$$=-#+%-&@#@#++&$$&;#O$-$@##@+O&$&",
"4<:O$,:<2:;&-3444<;O$,:<,:-=-34441:O$,,,,:;=-24411,@$::<,:;--<44",
":==@-==--&-&;::>:-=@-*==-=---;;>:-=+-=---=-&-::>,==+-=---=-&*>>,",
"---$-***->;&:--:---#=-**->>&;--;-=-$=-=-*::*:;-:---$--**-;:=;;-;",
"--;=-**-:--$----;-:$-**->=-&----:-:$-=-=---&*-==;-;&-*-----=&---",
"=$$@$$@$$$$#+%@$=$&@#$##$#$#@$#$=$=@####$#&#@##$&$$@@$@$$#$@####",
"<:==+.+:,>,*:-o*<:-=@ @;,,,*>-X*1:==#.+;,,>-:-o=<;-=@.O;,:,-:-o&",
";=--$o&--*-*-&+--=*-$o$--=---$+->--=$o&=-****&+>;--=$O$----=-&O;",
"-----$>:;**--&@*=->-*&,>--*->$#*---**&,;>**>>$+-----*$>:--*-;$+-",
"---;-&,:**-;-*+*----=&,---->-$+-*-;;=&,;-*---*+-*-;--$,>--=;-&@=",
"$$--@+,-&$**&#+&&&=-#+<*$$&&&$+$$&=-#+,&$$&**#+$$$--$O,*&$&&&$@$",
" ;<4:--3XX>,;;4+ ><1,--4oX;,:;4+ ,,1,--1oX-,>:2@.,,4,-;<+X=<,;<#",
"o<,---==-->---;;X<,;===--->---;;X,,-------::--::o,,>-=====,-*;;;",
"#<:=====-->-----#<:--===-->:----#,>-=-==--::----#,>&=-==--,;--=-",
"@;--=--=-->-----@;--====-->-*---$>-*====-*:-----#>--=-==-=;-----",
"X;==-=&&@#=$===-X---===%$#=$===-o-======%+-&=&--X---&==$#+-&***-",
"=-#+%-&++$@++$$$&=#+$-&++@@++$$$=-#+===+@##O+$$$&-#+$-=@@##++$$$",
"41,o&,,2,::=-44441:O&,,,<:;--34441,+#<:<,:;--24444,+$<:,<:;-=<44",
",-=+-&---=-=;:>>:-=+-&---&-=;:>>;;=+-===-&-=-:;:>-=+===--=-=->>,",
"===@--=--::&:-->--=#===--;:&;--:-=-#*--*-;;&:;-:---#---*=;;--;-:",
"-;;=-=*----&--=-;-;=---=---&--=-;-:=-**---;$*---;-:&-***---==---",
"=&&@#$#$$$$#@$@#=$$####$$$&#@#@#==&@#$##$$$#@$##=&&##&@#$$$@#$#$",
"<:=&+ @>,>>-:-o&<;==@ @;,>>*:-O=<-==#.+;>;>->-o&<;*&@.+;::,=;-o$",
";---$X&=*>**-*O>;---$o&=-*-*-&+-;=--$o&---*->*+>;-*-$o&*-----&O;",
"----*&,>>**->$+*--;-*&,;>**>:$+----**&>>;-*--$+-&---&&:::**-;$@-",
"*-->-&<-***>-$+*&---*&,;-**;-&+-*-->-$,---*>>*+**-:--&>;**-;-&+=",
"$&--#+<=*$**&$+$*&--$+<*&$***$+$$&--$+,-$$&**#+$*&--$+,***$-&$@$",
" ,,4:--1XX-<;-1+ ;,4,-;<XX-<>;1+ ;<1:-;<oX-,:-4+.>>4,--<OX=<:-<#",
"o,,>-=-==-;;=;>:X<,-===-==>--->;o<,;====-->---::o,,;=-=-==,-=;;;",
"@<;*=-==-::;----@<;--===-->---;-@<:--===--,;----#,>-====--,-----",
"#>-*=-===-:=*-=-@;;-==-=--,-----#;-=-===-->-*---$;---==--=:-*---",
"o--====##@-&***=O-=-==&&#@==&=&-X-=-==&&$+-&==*-X--====##+-&***-",
"&=#+=-=@+##++&#&=-@O&-$@+##+@$$$&-#+%-&++@@+O&$$&-#@$-=+@##@+$$&",
"4<:O$<:<<::=-14443:+#2,2<::=-<4441:+&,,22::--34444,O#<:<<:;==<44",
",-=+-==--&-&;>>,:-=+;&*--===-::,<-=+-**--=-&->>:;-=@-=---=-=-,>>",
"-=-#---*-;;&,;-:-=-@=--&-;;&;-->===#==--*::&::-:---#&-**=;:--;-:",
";-:&-**---=&=-----:$---=---=----:-:&-=*----&*---;-;$;*-*---==---",
"=$&#$$@$$#&####$-&&##$$$$$$@@$$$===##$#$&#&#@$@$*$&$@$#$$$$@#$#$",
"<;&&+ +;,;:=:=X=,;**@.O;;;:=;=X*<-=$@ +;:::*:-o$<;=&@.+-:;:=;-o$",
"----$o&->----$+->---$o&-;---**+->---$X$-;-**-*o>;---$o$------=O;",
"----*$,:-**-;$#--*;*&&>>--*;>$+*----&&>>;**>>$+-&---*&>:>---;$+-",
"*-;-*&,>-*-;;$+-*--:-&,>-*---*+**---=&,;***>-*+---;--$>>-*---$+-",
"**--$@2***&-&$+$&&--$+,-*$&-*$+*&*=;$+1******$+$*&--$+,***&-*$#&"
};
